<?xml version="1.0" encoding="UTF-8" standalone="no"?>
<svg width="191px" height="50px" viewBox="0 0 191 50" version="1.1" xmlns="http://www.w3.org/2000/svg" xmlns:xlink="http://www.w3.org/1999/xlink">
    <!-- Generator: Sketch 39.1 (31720) - http://www.bohemiancoding.com/sketch -->
    <title>logo/dark</title>
    <desc>Created with Sketch.</desc>
    <defs></defs>
    <g id="Symbols" stroke="none" stroke-width="1" fill="none" fill-rule="evenodd">
        <g id="navbar/dark" transform="translate(-46.000000, -20.000000)">
            <g id="navbar/light">
                <g id="logo/light" transform="translate(46.000000, 20.000000)">
                    <path d="M13.2399255,30.6133984 C15.0254997,30.6133984 16.9720161,30.7424349 19.0793447,30.9994661 L19.3106178,24.0891797 L17.9615895,23.8188672 C15.4429354,23.3042839 13.2591658,23.046862 11.4091107,23.046862 C6.96331042,23.046862 3.95077957,23.9925651 2.37047814,25.884362 C0.790176714,27.7758984 2.60003526e-05,31.2830599 2.60003526e-05,36.4041536 C2.60003526e-05,39.981888 0.340240613,42.7229036 1.02144985,44.6270703 C1.70200908,46.5320182 2.81378415,47.8893099 4.35547506,48.699987 C5.89729596,49.5106641 8.09432575,49.9160026 10.9465644,49.9160026 C13.7988031,49.9160026 16.5865609,49.581237 19.3106178,48.9123568 L19.1949163,42.1178255 L13.1820747,42.3493359 C11.9739684,42.3493359 11.1006165,42.2143099 10.5609792,41.9441276 C10.0214719,41.6736849 9.62938657,41.1273307 9.38550326,40.3033724 C9.14096995,39.4799349 9.0192883,38.0001172 9.0192883,35.8636589 C9.0192883,33.7277214 9.27591178,32.318737 9.79019875,31.6364453 C10.3039657,30.9548047 11.4535713,30.6133984 13.2399255,30.6133984" id="Fill-1" fill="#FFFFFF"></path>
                    <path d="M30.2182337,39.6083203 L31.6828336,30.5748568 L32.6464067,30.5748568 L34.0340455,39.6083203 L30.2182337,39.6083203 Z M25.3616279,23.5485547 L19.6570205,49.4141797 L28.4451397,49.4141797 L29.0617381,46.4415234 L34.959008,46.4415234 L35.6913079,49.4141797 L44.7107002,49.4141797 L38.8905213,23.5485547 L25.3616279,23.5485547 Z" id="Fill-3" fill="#FFFFFF"></path>
                    <path d="M56.7360843,35.6706641 L54.5390545,35.6706641 L54.5390545,30.6133724 L56.5048112,30.6133724 C57.9176703,30.6133724 58.6248799,31.4566016 58.6248799,33.1420182 C58.6248799,34.8279557 57.9947614,35.6706641 56.7360843,35.6706641 M67.6440122,32.9103776 C67.6440122,29.3202734 66.7828805,26.8625911 65.0616572,25.5368099 C63.3397838,24.2115495 60.4875452,23.5485286 56.5048112,23.5485286 L45.6353638,23.5485286 L45.6353638,49.4141536 L54.577535,49.4141536 L54.577535,42.7355078 L56.7745648,42.7355078 L58.2392947,49.4141536 L67.335778,49.4141536 L64.7919035,40.6120703 C66.6930493,39.0680599 67.6440122,36.500612 67.6440122,32.9103776" id="Fill-5" fill="#FFFFFF"></path>
                    <path d="M82.9071032,41.1141146 C82.2643744,41.7835156 81.275061,42.1177604 79.9391629,42.1177604 L78.3588615,42.1177604 L78.3588615,30.8451042 L79.9391629,30.8451042 C81.5832952,30.8451042 82.6433296,31.2310417 83.119136,32.0031771 C83.5942925,32.7753125 83.8320657,34.3194531 83.8320657,36.6358594 C83.8320657,38.9521354 83.5237015,40.4451042 82.9071032,41.1141146 M80.3246181,23.5486198 L69.4166902,23.5486198 L69.4166902,49.4141146 L80.7100734,49.4141146 C85.0523923,49.4141146 88.1617744,48.3138542 90.0376999,46.1134635 C91.9132353,43.9129427 92.851458,40.6061719 92.851458,36.191849 C92.851458,31.7781771 91.8744948,28.5673698 89.9219983,26.5599479 C87.9689818,24.5523958 84.7697684,23.5486198 80.3246181,23.5486198" id="Fill-7" fill="#FFFFFF"></path>
                    <path d="M159.46557,36.1338932 C158.989504,36.6230859 158.199353,36.867487 157.095118,36.867487 L156.285467,36.867487 L156.285467,30.6134505 L157.095118,30.6134505 C158.251354,30.6134505 159.054115,30.8197005 159.504051,31.2310286 C159.953337,31.643138 160.1785,32.4411849 160.1785,33.6246484 C160.1785,34.808763 159.940727,35.6453516 159.46557,36.1338932 M166.403374,25.6719141 C164.540059,24.2568099 161.566009,23.5486068 157.480313,23.5486068 L147.343296,23.5486068 L147.343296,49.4141016 L156.285467,49.4141016 L156.285467,43.9322005 L157.480313,43.9322005 C161.540138,43.9322005 164.508079,43.1927474 166.384004,41.7124089 C168.259409,40.2327214 169.197892,37.5428776 169.197892,33.6437891 C169.197892,29.7448307 168.26617,27.0875391 166.403374,25.6719141" id="Fill-9" fill="#E84F37"></path>
                    <polygon id="Fill-11" fill="#E84F37" points="190.281448 30.6907031 190.281448 23.5485156 170.932246 23.5485156 170.932246 49.4141406 190.281448 49.4141406 190.281448 42.2722135 179.874417 42.2722135 179.874417 39.9558073 187.968587 39.9558073 187.968587 32.8910937 179.874417 32.8910937 179.874417 30.6907031"></polygon>
                    <path d="M128.085693,29.4621224 C128.085693,34.2459766 124.21372,38.1241016 119.437325,38.1241016 C114.660931,38.1241016 110.788958,34.2459766 110.788958,29.4621224 C110.788958,28.1783984 111.068072,26.9600391 111.568319,25.8640755 C110.481244,25.1470182 109.797435,24.1078255 109.797435,22.9511849 C109.797435,20.7877734 112.189727,19.0339974 115.140637,19.0339974 C116.901901,19.0339974 118.463872,19.658737 119.437325,20.6224089 C120.410649,19.658737 121.97275,19.0339974 123.734014,19.0339974 C126.684924,19.0339974 129.077216,20.7877734 129.077216,22.9511849 C129.077216,24.1078255 128.393407,25.1470182 127.306202,25.8640755 C127.806579,26.9600391 128.085693,28.1783984 128.085693,29.4621224 M117.597021,6.41824219 C118.351421,6.41824219 119.03055,6.69871094 119.506616,7.1466276 C119.982813,6.69871094 120.661942,6.41824219 121.416342,6.41824219 C122.856242,6.41824219 124.023658,7.43920573 124.023658,8.69871094 C124.023658,9.95821615 122.856242,10.9791797 121.416342,10.9791797 C121.015157,10.9791797 122.73833,12.4147266 122.73833,13.7746224 C122.73833,15.3794401 121.291541,16.6803516 119.506616,16.6803516 C117.721952,16.6803516 116.275033,15.3794401 116.275033,13.7746224 C116.275033,12.4147266 117.998206,10.9791797 117.597021,10.9791797 C116.156991,10.9791797 114.989705,9.95821615 114.989705,8.69871094 C114.989705,7.43920573 116.156991,6.41824219 117.597021,6.41824219 M143.505332,29.3381641 C143.455671,28.7647266 143.259629,28.1951953 143.141717,27.630612 C142.178144,23.0131641 139.077082,18.728138 136.202873,15.3668099 C135.912839,15.027487 137.021624,14.8472786 136.71365,14.5247526 C136.457936,14.2569141 136.196243,13.9948047 135.928699,13.7390755 C133.225962,11.1540495 129.933148,9.19623698 126.276718,8.09402344 C126.515661,6.94115885 126.164267,5.89376302 125.442627,5.69571615 C124.985931,5.57032552 124.483734,5.81316406 124.079948,6.29063802 L124.079948,3.5872526 C124.079948,1.61420573 122.468187,1.30208333e-05 120.49827,1.30208333e-05 L120.384388,1.30208333e-05 C119.122851,1.30208333e-05 118.009126,0.662643229 117.370557,1.65717448 C115.950288,2.11342448 114.914564,3.45157552 114.914564,5.02058594 L114.914564,6.26902344 C114.514029,5.80613281 114.020412,5.57214844 113.570736,5.69571615 C112.849096,5.89376302 112.497701,6.94115885 112.736645,8.09402344 C109.080215,9.19623698 105.7874,11.1540495 103.084664,13.7390755 C102.81712,13.9948047 102.555427,14.2569141 102.299583,14.5247526 C101.991739,14.8472786 103.100524,15.027487 102.81036,15.3668099 C99.9362811,18.728138 96.835219,23.0131641 95.871646,27.630612 C95.7537344,28.1951953 95.5576917,28.7647266 95.508031,29.3381641 C95.4007796,29.7828255 96.5094346,29.6713672 96.4176534,30.1241016 C95.1255658,32.5230599 94.5556381,35.7261849 94.5556381,38.3828255 C94.5556381,42.3121224 95.135576,46.0724089 96.1941803,49.537513 L105.627108,49.537513 L105.627108,45.0207161 C105.627108,44.7778776 105.428726,44.5793099 105.186402,44.5793099 L103.5489,44.5793099 C102.976762,42.8004036 101.500332,36.4908984 106.535951,29.7661589 C108.849332,36.4692839 112.980528,40.0278776 112.980528,40.0278776 C112.980528,40.0278776 109.959807,42.600013 109.983337,47.3101693 L107.372252,47.3101693 C107.184919,47.3101693 107.031647,47.4638151 107.031647,47.6513151 L107.031647,49.537513 L116.451965,49.537513 C116.451705,49.5355599 116.451575,49.533737 116.451315,49.5317839 C115.921038,44.2873828 119.500246,42.9153776 119.500246,42.9153776 L119.513117,42.9153776 C119.513117,42.9153776 123.092325,44.2873828 122.562048,49.5317839 C122.561918,49.533737 122.561658,49.5355599 122.561398,49.537513 L131.981716,49.537513 L131.981716,47.6513151 C131.981716,47.4638151 131.828444,47.3101693 131.641111,47.3101693 L129.029896,47.3101693 C129.053556,42.600013 126.032705,40.0278776 126.032705,40.0278776 C126.032705,40.0278776 130.164031,36.4692839 132.477412,29.7661589 C137.513031,36.4908984 136.036601,42.8004036 135.464463,44.5793099 L133.826961,44.5793099 C133.584637,44.5793099 133.386255,44.7778776 133.386255,45.0207161 L133.386255,49.537513 L142.819183,49.537513 C143.877787,46.0724089 144.457725,42.3121224 144.457725,38.3828255 C144.457725,35.7261849 143.760265,32.5852995 142.59571,30.1241016 C142.503928,29.6713672 143.612583,29.7828255 143.505332,29.3381641" id="Fill-13" fill="#E84F37"></path>
                    <path d="M119.727047,12.0084115 L119.727047,12.9288542 C119.727047,12.9288542 122.061099,12.0279427 119.727047,12.0084115" id="Fill-15" fill="#E84F37"></path>
                    <path d="M119.286328,12.0084115 C116.952277,12.0279427 119.286328,12.9288542 119.286328,12.9288542 L119.286328,12.0084115 Z" id="Fill-17" fill="#E84F37"></path>
                    <path d="M116.187294,8.55160156 L116.983685,8.55160156 C116.921544,8.61045573 116.885014,8.67959635 116.885014,8.75394531 C116.885014,8.96709635 117.181028,9.14014323 117.546073,9.14014323 C117.911118,9.14014323 118.207132,8.96709635 118.207132,8.75394531 C118.207132,8.67959635 118.170601,8.61045573 118.10833,8.55160156 L120.949909,8.55160156 C120.887638,8.61045573 120.851108,8.67959635 120.851108,8.75394531 C120.851108,8.96709635 121.147122,9.14014323 121.512167,9.14014323 C121.877342,9.14014323 122.173226,8.96709635 122.173226,8.75394531 C122.173226,8.67959635 122.136695,8.61045573 122.074554,8.55160156 L122.797494,8.55160156 C122.918656,8.55160156 123.017847,8.4522526 123.017847,8.33089844 C123.017847,8.20954427 122.918656,8.11019531 122.797494,8.11019531 L116.187294,8.11019531 C116.066133,8.11019531 115.966941,8.20954427 115.966941,8.33089844 C115.966941,8.4522526 116.066133,8.55160156 116.187294,8.55160156" id="Fill-19" fill="#E84F37"></path>
                    <path d="M120.401783,15.0620182 L118.611528,15.0620182 C118.489847,15.0620182 118.391175,15.1608464 118.391175,15.2825911 C118.391175,15.4045964 118.489847,15.5034245 118.611528,15.5034245 L120.401783,15.5034245 C120.523464,15.5034245 120.622136,15.4045964 120.622136,15.2825911 C120.622136,15.1608464 120.523464,15.0620182 120.401783,15.0620182" id="Fill-21" fill="#E84F37"></path>
                </g>
            </g>
        </g>
    </g>
</svg>